<svg xmlns="http://www.w3.org/2000/svg" width="1024" height="1024" viewBox="0 0 1024 1024">
<g>
<path d="M 484.59 555.18 C481.07,558.06 478.16,558.04 476.12,555.12 C475.11,553.68 464.03,534.50 451.48,512.50 C423.41,463.28 390.97,406.75 374.01,377.50 C351.59,338.83 329.94,301.02 329.36,299.49 C328.86,298.19 334.25,298.00 372.64,298.01 C400.48,298.01 417.90,298.40 420.32,299.07 C428.12,301.24 430.72,304.93 457.18,351.39 C518.40,458.86 531.00,481.45 531.00,483.68 C531.00,485.70 487.38,552.89 484.59,555.18 ZM 570.50 700.09 L 569.50 735.50 L 559.95 735.78 C554.70,735.94 550.09,735.75 549.70,735.37 C549.32,734.98 549.00,711.34 549.00,682.83 L 549.00 631.00 L 570.00 631.00 L 570.00 639.01 L 574.07 636.06 C583.30,629.38 598.82,627.60 610.20,631.94 C626.08,637.98 635.95,656.50 633.19,675.08 C631.12,689.02 623.50,700.16 612.27,705.66 C601.35,711.00 585.06,709.87 574.94,703.07 ZM 750.50 707.64 C739.73,710.51 724.16,708.63 715.18,703.36 C692.49,690.07 689.39,657.32 709.13,639.57 C724.31,625.93 752.29,626.09 767.28,639.91 C776.36,648.28 781.29,662.87 779.15,675.03 C776.24,691.56 765.66,703.61 750.50,707.64 ZM 345.46 702.00 L 343.19 707.50 L 330.74 707.78 C321.57,707.98 318.01,707.72 317.23,706.78 C316.65,706.08 311.80,695.15 306.46,682.50 C286.07,634.18 275.15,608.06 274.51,606.04 C273.86,603.97 274.05,603.94 286.52,604.22 L 299.20 604.50 L 314.35 642.20 C322.68,662.94 329.86,680.04 330.31,680.20 C330.75,680.37 337.91,663.29 346.23,642.25 L 361.34 604.00 L 373.73 604.00 C380.54,604.00 385.92,604.34 385.67,604.75 C385.42,605.16 376.78,625.97 366.47,651.00 C356.16,676.03 346.71,698.97 345.46,702.00 ZM 432.19 707.02 C423.74,709.63 409.82,709.63 401.66,707.03 C384.79,701.64 375.07,688.11 375.02,669.94 C374.95,644.70 393.16,627.67 418.52,629.25 C439.97,630.59 452.96,644.90 452.99,667.25 L 453.00 675.00 L 394.96 675.00 L 395.58 677.75 C397.59,686.79 406.97,693.50 417.50,693.45 C424.91,693.41 429.81,691.79 435.37,687.54 L 439.66 684.27 L 445.37 689.76 C450.85,695.02 451.01,695.33 449.37,697.15 C446.15,700.70 438.60,705.04 432.19,707.02 ZM 483.20 682.57 L 482.90 708.00 L 473.12 708.00 C467.74,708.00 463.03,707.70 462.67,707.33 C462.30,706.97 462.00,689.64 462.00,668.83 L 462.00 631.00 L 482.00 631.00 L 482.00 635.00 C482.00,639.63 482.77,639.94 485.92,636.58 C490.05,632.19 497.59,629.66 506.67,629.63 C513.79,629.60 515.59,629.98 520.67,632.57 C524.90,634.73 527.39,636.87 529.74,640.37 C535.07,648.31 535.44,650.92 535.47,680.50 L 535.50 707.50 L 515.50 707.50 L 515.00 682.50 C514.45,654.79 514.03,652.88 507.70,648.90 C505.20,647.33 503.23,646.97 498.74,647.26 C492.60,647.65 489.23,649.47 485.56,654.38 C483.63,656.97 483.48,658.70 483.20,682.57 ZM 666.00 684.50 L 665.50 707.50 L 655.95 707.78 C650.70,707.94 646.09,707.75 645.70,707.37 C645.32,706.98 645.00,689.64 645.00,668.83 L 645.00 631.00 L 666.00 631.00 L 666.00 641.27 L 668.07 638.63 C671.95,633.71 678.50,630.73 686.61,630.21 L 694.00 629.74 L 694.00 649.00 L 687.47 649.00 C677.79,649.00 671.72,651.99 668.15,658.50 C666.80,660.95 666.41,665.69 666.00,684.50 ZM 583.00 690.41 C590.09,693.48 600.35,691.81 605.83,686.70 C612.82,680.19 614.74,667.07 610.10,657.64 C606.54,650.39 600.70,647.00 591.76,647.00 C577.65,647.00 570.00,654.92 570.00,669.51 C570.00,679.36 574.61,686.77 583.00,690.41 ZM 730.15 690.98 C731.44,691.53 735.47,691.86 739.11,691.71 C744.31,691.51 746.58,690.88 749.74,688.79 C761.05,681.31 762.26,660.89 751.95,651.57 C747.20,647.29 744.96,646.66 736.04,647.17 C730.16,647.50 728.54,648.02 725.31,650.59 C719.69,655.05 717.00,661.02 717.01,668.96 C717.03,679.61 721.67,687.40 730.15,690.98 ZM 395.67 661.27 C395.93,661.70 404.55,661.92 414.82,661.77 L 433.50 661.50 L 433.17 658.50 C432.73,654.38 429.33,649.17 425.60,646.90 C418.97,642.86 404.94,644.98 399.65,650.83 C397.59,653.11 394.93,660.08 395.67,661.27 Z" fill="#2d7ff9"/>
<path d="M 484.59 555.18 C487.38,552.89 531.00,485.70 531.00,483.68 C531.00,482.61 528.12,476.89 518.42,459.46 C521.64,465.20 524.09,469.59 525.56,472.25 C528.82,478.16 531.71,483.00 531.99,482.99 C532.27,482.99 534.29,480.17 536.48,476.74 C541.34,469.13 569.82,425.88 604.47,373.50 C618.66,352.05 632.30,331.42 634.79,327.65 C637.27,323.89 638.89,320.51 638.38,320.15 C637.87,319.79 632.66,316.25 626.80,312.28 C620.95,308.31 615.89,304.63 615.57,304.11 C615.01,303.21 642.72,293.72 693.11,277.57 C706.09,273.41 717.01,270.00 717.36,270.00 C718.49,270.00 718.06,275.09 715.46,292.50 C714.07,301.85 712.28,314.00 711.49,319.50 C706.88,351.61 703.99,369.41 703.27,370.13 C702.83,370.57 698.25,367.33 693.10,362.93 C687.96,358.52 683.24,355.09 682.62,355.29 C682.01,355.50 665.08,382.91 645.00,416.21 C624.92,449.50 604.85,482.77 600.38,490.12 C595.92,497.48 584.95,515.65 576.01,530.50 C567.07,545.35 558.58,558.79 557.13,560.38 C555.68,561.96 552.25,564.32 549.50,565.62 C544.64,567.91 543.76,567.98 518.50,567.98 C493.24,567.98 492.36,567.91 487.50,565.62 C484.75,564.32 481.31,561.96 479.85,560.38 C479.55,560.05 478.64,558.65 477.22,556.34 C479.15,557.96 481.66,557.57 484.59,555.18 ZM 449.71 509.40 C447.76,506.01 445.77,502.53 443.75,499.00 C423.17,463.01 408.26,436.95 396.97,417.31 C412.87,444.95 432.06,478.46 449.71,509.40 ZM 425.77 301.72 C430.91,305.82 437.11,316.16 455.19,347.89 C455.85,349.06 456.52,350.22 457.18,351.39 C437.49,316.81 431.01,305.92 425.77,301.72 ZM 355.41 345.31 C361.23,355.42 367.59,366.42 374.01,377.50 C368.37,367.80 361.78,356.38 355.41,345.31 Z" fill="rgb(41,205,164)"/>
<path d="M 0.00 512.00 L 0.00 0.00 L 512.00 0.00 L 1024.00 0.00 L 1024.00 512.00 L 1024.00 1024.00 L 512.00 1024.00 L 0.00 1024.00 L 0.00 512.00 ZM 570.00 717.79 L 570.50 700.09 L 574.94 703.07 C585.06,709.87 601.35,711.00 612.27,705.66 C623.50,700.16 631.12,689.02 633.19,675.08 C635.95,656.50 626.08,637.98 610.20,631.94 C598.82,627.60 583.30,629.38 574.07,636.06 L 570.00 639.01 L 570.00 635.01 L 570.00 631.00 L 559.50 631.00 L 549.00 631.00 L 549.00 682.83 C549.00,711.34 549.32,734.98 549.70,735.37 C550.09,735.75 554.70,735.94 559.95,735.78 L 569.50 735.50 L 570.00 717.79 ZM 432.19 707.02 C438.60,705.04 446.15,700.70 449.37,697.15 C451.01,695.33 450.85,695.02 445.37,689.76 L 439.66 684.27 L 435.37 687.54 C429.81,691.79 424.91,693.41 417.50,693.45 C406.97,693.50 397.59,686.79 395.58,677.75 L 394.96 675.00 L 423.98 675.00 L 453.00 675.00 L 452.99 667.25 C452.96,644.90 439.97,630.59 418.52,629.25 C393.16,627.67 374.95,644.70 375.02,669.94 C375.07,688.11 384.79,701.64 401.66,707.03 C409.82,709.63 423.74,709.63 432.19,707.02 ZM 750.50 707.64 C765.66,703.61 776.24,691.56 779.15,675.03 C781.29,662.87 776.36,648.28 767.28,639.91 C752.29,626.09 724.31,625.93 709.13,639.57 C689.39,657.32 692.49,690.07 715.18,703.36 C724.16,708.63 739.73,710.51 750.50,707.64 ZM 345.46 702.00 C346.71,698.97 356.16,676.03 366.47,651.00 C376.78,625.97 385.42,605.16 385.67,604.75 C385.92,604.34 380.54,604.00 373.73,604.00 L 361.34 604.00 L 346.23 642.25 C337.91,663.29 330.75,680.37 330.31,680.20 C329.86,680.04 322.68,662.94 314.35,642.20 L 299.20 604.50 L 286.52 604.22 C274.05,603.94 273.86,603.97 274.51,606.04 C275.15,608.06 286.07,634.18 306.46,682.50 C311.80,695.15 316.65,706.08 317.23,706.78 C318.01,707.72 321.57,707.98 330.74,707.78 L 343.19 707.50 L 345.46 702.00 ZM 483.20 682.57 C483.48,658.70 483.63,656.97 485.56,654.38 C489.23,649.47 492.60,647.65 498.74,647.26 C503.23,646.97 505.20,647.33 507.70,648.90 C514.03,652.88 514.45,654.79 515.00,682.50 L 515.50 707.50 L 525.50 707.50 L 535.50 707.50 L 535.47 680.50 C535.44,650.92 535.07,648.31 529.74,640.37 C527.39,636.87 524.90,634.73 520.67,632.57 C515.59,629.98 513.79,629.60 506.67,629.63 C497.59,629.66 490.05,632.19 485.92,636.58 C482.77,639.94 482.00,639.63 482.00,635.00 L 482.00 631.00 L 472.00 631.00 L 462.00 631.00 L 462.00 668.83 C462.00,689.64 462.30,706.97 462.67,707.33 C463.03,707.70 467.74,708.00 473.12,708.00 L 482.90 708.00 L 483.20 682.57 ZM 666.00 684.50 C666.41,665.69 666.80,660.95 668.15,658.50 C671.72,651.99 677.79,649.00 687.47,649.00 L 694.00 649.00 L 694.00 639.37 L 694.00 629.74 L 686.61 630.21 C678.50,630.73 671.95,633.71 668.07,638.63 L 666.00 641.27 L 666.00 636.13 L 666.00 631.00 L 655.50 631.00 L 645.00 631.00 L 645.00 668.83 C645.00,689.64 645.32,706.98 645.70,707.37 C646.09,707.75 650.70,707.94 655.95,707.78 L 665.50 707.50 L 666.00 684.50 ZM 549.50 565.62 C552.25,564.32 555.68,561.96 557.13,560.38 C558.58,558.79 567.07,545.35 576.01,530.50 C584.95,515.65 595.92,497.48 600.38,490.12 C604.85,482.77 624.92,449.50 645.00,416.21 C665.08,382.91 682.01,355.50 682.62,355.29 C683.24,355.09 687.96,358.52 693.10,362.93 C698.25,367.33 702.83,370.57 703.27,370.13 C703.99,369.41 706.88,351.61 711.49,319.50 C712.28,314.00 714.07,301.85 715.46,292.50 C718.06,275.09 718.49,270.00 717.36,270.00 C717.01,270.00 706.09,273.41 693.11,277.57 C642.72,293.72 615.01,303.21 615.57,304.11 C615.89,304.63 620.95,308.31 626.80,312.28 C632.66,316.25 637.87,319.79 638.38,320.15 C638.89,320.51 637.27,323.89 634.79,327.65 C632.30,331.42 618.66,352.05 604.47,373.50 C569.82,425.88 541.34,469.13 536.48,476.74 C534.29,480.17 532.27,482.99 531.99,482.99 C531.71,483.00 528.82,478.16 525.56,472.25 C518.12,458.75 485.42,400.97 455.19,347.89 C430.82,305.11 428.04,301.21 420.32,299.07 C417.90,298.40 400.48,298.01 372.64,298.01 C334.41,298.00 328.86,298.19 329.35,299.47 C329.90,300.91 356.55,347.48 374.01,377.50 C386.15,398.39 404.81,430.90 443.75,499.00 C462.15,531.17 478.39,558.79 479.85,560.38 C481.31,561.96 484.75,564.32 487.50,565.62 C492.36,567.91 493.24,567.98 518.50,567.98 C543.76,567.98 544.64,567.91 549.50,565.62 ZM 583.00 690.41 C574.61,686.77 570.00,679.36 570.00,669.51 C570.00,654.92 577.65,647.00 591.76,647.00 C600.70,647.00 606.54,650.39 610.10,657.64 C614.74,667.07 612.82,680.19 605.83,686.70 C600.35,691.81 590.09,693.48 583.00,690.41 ZM 395.67 661.27 C394.93,660.08 397.59,653.11 399.65,650.83 C404.94,644.98 418.97,642.86 425.60,646.90 C429.33,649.17 432.73,654.38 433.17,658.50 L 433.50 661.50 L 414.82 661.77 C404.55,661.92 395.93,661.70 395.67,661.27 ZM 730.15 690.98 C721.67,687.40 717.03,679.61 717.01,668.96 C717.00,661.02 719.69,655.05 725.31,650.59 C728.54,648.02 730.16,647.50 736.04,647.17 C744.96,646.66 747.20,647.29 751.95,651.57 C762.26,660.89 761.05,681.31 749.74,688.79 C746.58,690.88 744.31,691.51 739.11,691.71 C735.47,691.86 731.44,691.53 730.15,690.98 Z" fill="rgb(253,253,253)"/>
</g>
</svg>