<svg xmlns="http://www.w3.org/2000/svg" width="128" height="128" viewBox="300 250 450 345" overflow="hidden">
  <path d="M 484.59 555.18 C481.07,558.06 478.16,558.04 476.12,555.12 C475.11,553.68 464.03,534.50 451.48,512.50 C423.41,463.28 390.97,406.75 374.01,377.50 C351.59,338.83 329.94,301.02 329.36,299.49 C328.86,298.19 334.25,298.00 372.64,298.01 C400.48,298.01 417.90,298.40 420.32,299.07 C428.12,301.24 430.72,304.93 457.18,351.39 C518.40,458.86 531.00,481.45 531.00,483.68 C531.00,485.70 487.38,552.89 484.59,555.18 Z" fill="#2d7ff9"/>
  <path d="M 484.59 555.18 C487.38,552.89 531.00,485.70 531.00,483.68 C531.00,482.61 528.12,476.89 518.42,459.46 C521.64,465.20 524.09,469.59 525.56,472.25 C528.82,478.16 531.71,483.00 531.99,482.99 C532.27,482.99 534.29,480.17 536.48,476.74 C541.34,469.13 569.82,425.88 604.47,373.50 C618.66,352.05 632.30,331.42 634.79,327.65 C637.27,323.89 638.89,320.51 638.38,320.15 C637.87,319.79 632.66,316.25 626.80,312.28 C620.95,308.31 615.89,304.63 615.57,304.11 C615.01,303.21 642.72,293.72 693.11,277.57 C706.09,273.41 717.01,270.00 717.36,270.00 C718.49,270.00 718.06,275.09 715.46,292.50 C714.07,301.85 712.28,314.00 711.49,319.50 C706.88,351.61 703.99,369.41 703.27,370.13 C702.83,370.57 698.25,367.33 693.10,362.93 C687.96,358.52 683.24,355.09 682.62,355.29 C682.01,355.50 665.08,382.91 645.00,416.21 C624.92,449.50 604.85,482.77 600.38,490.12 C595.92,497.48 584.95,515.65 576.01,530.50 C567.07,545.35 558.58,558.79 557.13,560.38 C555.68,561.96 552.25,564.32 549.50,565.62 C544.64,567.91 543.76,567.98 518.50,567.98 C493.24,567.98 492.36,567.91 487.50,565.62 C484.75,564.32 481.31,561.96 479.85,560.38 C479.55,560.05 478.64,558.65 477.22,556.34 C479.15,557.96 481.66,557.57 484.59,555.18 Z" fill="#29cda4"/>
</svg>
